<svg id="my-svg" width="100%" xmlns="http://www.w3.org/2000/svg" xmlns:xlink="http://www.w3.org/1999/xlink" class="flowchart" style="max-width: 1241.06px; background-color: transparent;" viewBox="0 0 1241.0625 2039.875" role="graphics-document document" aria-roledescription="flowchart-v2"><style>#my-svg{font-family:"trebuchet ms",verdana,arial,sans-serif;font-size:16px;fill:#333;}@keyframes edge-animation-frame{from{stroke-dashoffset:0;}}@keyframes dash{to{stroke-dashoffset:0;}}#my-svg .edge-animation-slow{stroke-dasharray:9,5!important;stroke-dashoffset:900;animation:dash 50s linear infinite;stroke-linecap:round;}#my-svg .edge-animation-fast{stroke-dasharray:9,5!important;stroke-dashoffset:900;animation:dash 20s linear infinite;stroke-linecap:round;}#my-svg .error-icon{fill:#552222;}#my-svg .error-text{fill:#552222;stroke:#552222;}#my-svg .edge-thickness-normal{stroke-width:1px;}#my-svg .edge-thickness-thick{stroke-width:3.5px;}#my-svg .edge-pattern-solid{stroke-dasharray:0;}#my-svg .edge-thickness-invisible{stroke-width:0;fill:none;}#my-svg .edge-pattern-dashed{stroke-dasharray:3;}#my-svg .edge-pattern-dotted{stroke-dasharray:2;}#my-svg .marker{fill:#333333;stroke:#333333;}#my-svg .marker.cross{stroke:#333333;}#my-svg svg{font-family:"trebuchet ms",verdana,arial,sans-serif;font-size:16px;}#my-svg p{margin:0;}#my-svg .label{font-family:"trebuchet ms",verdana,arial,sans-serif;color:#333;}#my-svg .cluster-label text{fill:#333;}#my-svg .cluster-label span{color:#333;}#my-svg .cluster-label span p{background-color:transparent;}#my-svg .label text,#my-svg span{fill:#333;color:#333;}#my-svg .node rect,#my-svg .node circle,#my-svg .node ellipse,#my-svg .node polygon,#my-svg .node path{fill:#ECECFF;stroke:#9370DB;stroke-width:1px;}#my-svg .rough-node .label text,#my-svg .node .label text,#my-svg .image-shape .label,#my-svg .icon-shape .label{text-anchor:middle;}#my-svg .node .katex path{fill:#000;stroke:#000;stroke-width:1px;}#my-svg .rough-node .label,#my-svg .node .label,#my-svg .image-shape .label,#my-svg .icon-shape .label{text-align:center;}#my-svg .node.clickable{cursor:pointer;}#my-svg .root .anchor path{fill:#333333!important;stroke-width:0;stroke:#333333;}#my-svg .arrowheadPath{fill:#333333;}#my-svg .edgePath .path{stroke:#333333;stroke-width:2.0px;}#my-svg .flowchart-link{stroke:#333333;fill:none;}#my-svg .edgeLabel{background-color:rgba(232,232,232, 0.8);text-align:center;}#my-svg .edgeLabel p{background-color:rgba(232,232,232, 0.8);}#my-svg .edgeLabel rect{opacity:0.5;background-color:rgba(232,232,232, 0.8);fill:rgba(232,232,232, 0.8);}#my-svg .labelBkg{background-color:rgba(232, 232, 232, 0.5);}#my-svg .cluster rect{fill:#ffffde;stroke:#aaaa33;stroke-width:1px;}#my-svg .cluster text{fill:#333;}#my-svg .cluster span{color:#333;}#my-svg div.mermaidTooltip{position:absolute;text-align:center;max-width:200px;padding:2px;font-family:"trebuchet ms",verdana,arial,sans-serif;font-size:12px;background:hsl(80, 100%, 96.2745098039%);border:1px solid #aaaa33;border-radius:2px;pointer-events:none;z-index:100;}#my-svg .flowchartTitleText{text-anchor:middle;font-size:18px;fill:#333;}#my-svg rect.text{fill:none;stroke-width:0;}#my-svg .icon-shape,#my-svg .image-shape{background-color:rgba(232,232,232, 0.8);text-align:center;}#my-svg .icon-shape p,#my-svg .image-shape p{background-color:rgba(232,232,232, 0.8);padding:2px;}#my-svg .icon-shape rect,#my-svg .image-shape rect{opacity:0.5;background-color:rgba(232,232,232, 0.8);fill:rgba(232,232,232, 0.8);}#my-svg .label-icon{display:inline-block;height:1em;overflow:visible;vertical-align:-0.125em;}#my-svg .node .label-icon path{fill:currentColor;stroke:revert;stroke-width:revert;}#my-svg :root{--mermaid-font-family:"trebuchet ms",verdana,arial,sans-serif;}</style><g><marker id="my-svg_flowchart-v2-pointEnd" class="marker flowchart-v2" viewBox="0 0 10 10" refX="5" refY="5" markerUnits="userSpaceOnUse" markerWidth="8" markerHeight="8" orient="auto"><path d="M 0 0 L 10 5 L 0 10 z" class="arrowMarkerPath" style="stroke-width: 1; stroke-dasharray: 1, 0;"/></marker><marker id="my-svg_flowchart-v2-pointStart" class="marker flowchart-v2" viewBox="0 0 10 10" refX="4.5" refY="5" markerUnits="userSpaceOnUse" markerWidth="8" markerHeight="8" orient="auto"><path d="M 0 5 L 10 10 L 10 0 z" class="arrowMarkerPath" style="stroke-width: 1; stroke-dasharray: 1, 0;"/></marker><marker id="my-svg_flowchart-v2-circleEnd" class="marker flowchart-v2" viewBox="0 0 10 10" refX="11" refY="5" markerUnits="userSpaceOnUse" markerWidth="11" markerHeight="11" orient="auto"><circle cx="5" cy="5" r="5" class="arrowMarkerPath" style="stroke-width: 1; stroke-dasharray: 1, 0;"/></marker><marker id="my-svg_flowchart-v2-circleStart" class="marker flowchart-v2" viewBox="0 0 10 10" refX="-1" refY="5" markerUnits="userSpaceOnUse" markerWidth="11" markerHeight="11" orient="auto"><circle cx="5" cy="5" r="5" class="arrowMarkerPath" style="stroke-width: 1; stroke-dasharray: 1, 0;"/></marker><marker id="my-svg_flowchart-v2-crossEnd" class="marker cross flowchart-v2" viewBox="0 0 11 11" refX="12" refY="5.2" markerUnits="userSpaceOnUse" markerWidth="11" markerHeight="11" orient="auto"><path d="M 1,1 l 9,9 M 10,1 l -9,9" class="arrowMarkerPath" style="stroke-width: 2; stroke-dasharray: 1, 0;"/></marker><marker id="my-svg_flowchart-v2-crossStart" class="marker cross flowchart-v2" viewBox="0 0 11 11" refX="-1" refY="5.2" markerUnits="userSpaceOnUse" markerWidth="11" markerHeight="11" orient="auto"><path d="M 1,1 l 9,9 M 10,1 l -9,9" class="arrowMarkerPath" style="stroke-width: 2; stroke-dasharray: 1, 0;"/></marker><g class="root"><g class="clusters"><g class="cluster" id="ACTR" data-look="classic"><rect style="" x="274.984375" y="8" width="265" height="228"/><g class="cluster-label" transform="translate(347.1484375, 8)"><foreignObject width="120.671875" height="24"><div xmlns="http://www.w3.org/1999/xhtml" style="display: table-cell; white-space: nowrap; line-height: 1.5; max-width: 200px; text-align: center;"><span class="nodeLabel"><p>Acteurs externes</p></span></div></foreignObject></g></g><g class="cluster" id="SYS" data-look="classic"><rect style="" x="274.984375" y="256" width="958.078125" height="1764.875"/><g class="cluster-label" transform="translate(654.0234375, 256)"><foreignObject width="200" height="48"><div xmlns="http://www.w3.org/1999/xhtml" style="display: table; white-space: break-spaces; line-height: 1.5; max-width: 200px; text-align: center; width: 200px;"><span class="nodeLabel"><p>Systeme de Facturation d'Entreprise - FEC</p></span></div></foreignObject></g></g><g class="cluster" id="ACTL" data-look="classic"><rect style="" x="8" y="326.5" width="216.984375" height="1705.375"/><g class="cluster-label" transform="translate(57.875, 326.5)"><foreignObject width="117.234375" height="24"><div xmlns="http://www.w3.org/1999/xhtml" style="display: table-cell; white-space: nowrap; line-height: 1.5; max-width: 200px; text-align: center;"><span class="nodeLabel"><p>Acteurs internes</p></span></div></foreignObject></g></g></g><g class="edgePaths"><path d="M199.984,380.035L204.151,379.612C208.318,379.19,216.651,378.345,224.984,377.922C233.318,377.5,241.651,377.5,249.984,377.5C258.318,377.5,266.651,377.5,290.41,451.076C314.169,524.652,353.353,671.804,372.946,745.38L392.538,818.956" id="L_ADM_UC1_0" class="edge-thickness-normal edge-pattern-solid edge-thickness-normal edge-pattern-solid flowchart-link" style=";" data-edge="true" data-et="edge" data-id="L_ADM_UC1_0" data-points="W3sieCI6MTk5Ljk4NDM3NSwieSI6MzgwLjAzNDc0NDcyNTI4MjZ9LHsieCI6MjI0Ljk4NDM3NSwieSI6Mzc3LjV9LHsieCI6MjQ5Ljk4NDM3NSwieSI6Mzc3LjV9LHsieCI6Mjc0Ljk4NDM3NSwieSI6Mzc3LjV9LHsieCI6MzkzLjU2NzA0MDk5ODE1NiwieSI6ODIyLjgyMTI2MDYxODQyODl9XQ==" marker-end="url(#my-svg_flowchart-v2-pointEnd)"/><path d="M199.984,396.196L204.151,396.58C208.318,396.964,216.651,397.732,224.984,398.116C233.318,398.5,241.651,398.5,249.984,398.5C258.318,398.5,266.651,398.5,274.318,398.5C281.984,398.5,288.984,398.5,292.484,398.5L295.984,398.5" id="L_ADM_UC2_0" class="edge-thickness-normal edge-pattern-solid edge-thickness-normal edge-pattern-solid flowchart-link" style=";" data-edge="true" data-et="edge" data-id="L_ADM_UC2_0" data-points="W3sieCI6MTk5Ljk4NDM3NSwieSI6Mzk2LjE5NTY4NjYxMzM3OTR9LHsieCI6MjI0Ljk4NDM3NSwieSI6Mzk4LjV9LHsieCI6MjQ5Ljk4NDM3NSwieSI6Mzk4LjV9LHsieCI6Mjc0Ljk4NDM3NSwieSI6Mzk4LjV9LHsieCI6Mjk5Ljk4NDM3NSwieSI6Mzk4LjV9XQ==" marker-end="url(#my-svg_flowchart-v2-pointEnd)"/><path d="M138.6,415.5L152.997,433.083C167.395,450.667,196.19,485.833,214.754,503.417C233.318,521,241.651,521,249.984,521C258.318,521,266.651,521,290.799,696.557C314.948,872.113,354.911,1223.227,374.893,1398.784L394.875,1574.34" id="L_ADM_UC9_0" class="edge-thickness-normal edge-pattern-solid edge-thickness-normal edge-pattern-solid flowchart-link" style=";" data-edge="true" data-et="edge" data-id="L_ADM_UC9_0" data-points="W3sieCI6MTM4LjYwMDAyOTQ4MTEzMjA4LCJ5Ijo0MTUuNX0seyJ4IjoyMjQuOTg0Mzc1LCJ5Ijo1MjF9LHsieCI6MjQ5Ljk4NDM3NSwieSI6NTIxfSx7IngiOjI3NC45ODQzNzUsInkiOjUyMX0seyJ4IjozOTUuMzI3MjgzNjA2NTczNiwieSI6MTU3OC4zMTQ2MzAwNTAwMTg2fV0=" marker-end="url(#my-svg_flowchart-v2-pointEnd)"/><path d="M128.396,954.629L144.494,918.115C160.592,881.6,192.788,808.572,213.053,772.057C233.318,735.543,241.651,735.543,249.984,735.543C258.318,735.543,266.651,735.543,286.235,751.78C305.819,768.017,336.654,800.49,352.071,816.727L367.488,832.964" id="L_CPT_UC1_0" class="edge-thickness-normal edge-pattern-solid edge-thickness-normal edge-pattern-solid flowchart-link" style=";" data-edge="true" data-et="edge" data-id="L_CPT_UC1_0" data-points="W3sieCI6MTI4LjM5NTcwODI0NjY5MDM2LCJ5Ijo5NTQuNjI4OTA2MjV9LHsieCI6MjI0Ljk4NDM3NSwieSI6NzM1LjU0Mjk2ODc1fSx7IngiOjI0OS45ODQzNzUsInkiOjczNS41NDI5Njg3NX0seyJ4IjoyNzQuOTg0Mzc1LCJ5Ijo3MzUuNTQyOTY4NzV9LHsieCI6MzcwLjI0MjQzOTk0NDgzNzY2LCJ5Ijo4MzUuODY0NDI2NzEwNjI2fV0=" marker-end="url(#my-svg_flowchart-v2-pointEnd)"/><path d="M129.449,954.629L145.371,921.448C161.294,888.267,193.139,821.905,213.228,788.724C233.318,755.543,241.651,755.543,249.984,755.543C258.318,755.543,266.651,755.543,277.639,750.805C288.627,746.066,302.269,736.589,309.09,731.851L315.911,727.113" id="L_CPT_UC3_0" class="edge-thickness-normal edge-pattern-solid edge-thickness-normal edge-pattern-solid flowchart-link" style=";" data-edge="true" data-et="edge" data-id="L_CPT_UC3_0" data-points="W3sieCI6MTI5LjQ0ODcxNjc1MTE4MzUzLCJ5Ijo5NTQuNjI4OTA2MjV9LHsieCI6MjI0Ljk4NDM3NSwieSI6NzU1LjU0Mjk2ODc1fSx7IngiOjI0OS45ODQzNzUsInkiOjc1NS41NDI5Njg3NX0seyJ4IjoyNzQuOTg0Mzc1LCJ5Ijo3NTUuNTQyOTY4NzV9LHsieCI6MzE5LjE5NjE4Mjc0MjI2NjMsInkiOjcyNC44MzA2MjEyOTAzNTkxfV0=" marker-end="url(#my-svg_flowchart-v2-pointEnd)"/><path d="M155.163,954.629L166.8,946.504C178.437,938.379,201.71,922.129,217.514,914.004C233.318,905.879,241.651,905.879,249.984,905.879C258.318,905.879,266.651,905.879,286.61,945.713C306.569,985.546,338.154,1065.214,353.947,1105.047L369.739,1144.881" id="L_CPT_UC4_0" class="edge-thickness-normal edge-pattern-solid edge-thickness-normal edge-pattern-solid flowchart-link" style=";" data-edge="true" data-et="edge" data-id="L_CPT_UC4_0" data-points="W3sieCI6MTU1LjE2MjY3MDE3MzI2NzMyLCJ5Ijo5NTQuNjI4OTA2MjV9LHsieCI6MjI0Ljk4NDM3NSwieSI6OTA1Ljg3ODkwNjI1fSx7IngiOjI0OS45ODQzNzUsInkiOjkwNS44Nzg5MDYyNX0seyJ4IjoyNzQuOTg0Mzc1LCJ5Ijo5MDUuODc4OTA2MjV9LHsieCI6MzcxLjIxMzYwNTM0MjMxNzQ2LCJ5IjoxMTQ4LjU5OTU1MDcxOTI3MDR9XQ==" marker-end="url(#my-svg_flowchart-v2-pointEnd)"/><path d="M185.227,970.569L191.853,969.503C198.479,968.437,211.732,966.304,222.525,965.238C233.318,964.172,241.651,964.172,249.984,964.172C258.318,964.172,266.651,964.172,292.901,964.172C319.151,964.172,363.318,964.172,407.484,964.172C451.651,964.172,495.818,964.172,526.424,964.172C557.031,964.172,574.078,964.172,590.458,964.172C606.839,964.172,622.552,964.172,630.409,964.172L638.266,964.172" id="L_CPT_UC5_0" class="edge-thickness-normal edge-pattern-solid edge-thickness-normal edge-pattern-solid flowchart-link" style=";" data-edge="true" data-et="edge" data-id="L_CPT_UC5_0" data-points="W3sieCI6MTg1LjIyNjU2MjUsInkiOjk3MC41NjkxNDA5MzQ0MTcxfSx7IngiOjIyNC45ODQzNzUsInkiOjk2NC4xNzE4NzV9LHsieCI6MjQ5Ljk4NDM3NSwieSI6OTY0LjE3MTg3NX0seyJ4IjoyNzQuOTg0Mzc1LCJ5Ijo5NjQuMTcxODc1fSx7IngiOjQwNy40ODQzNzUsInkiOjk2NC4xNzE4NzV9LHsieCI6NTM5Ljk4NDM3NSwieSI6OTY0LjE3MTg3NX0seyJ4Ijo1OTEuMTI1LCJ5Ijo5NjQuMTcxODc1fSx7IngiOjY0Mi4yNjU2MjUsInkiOjk2NC4xNzE4NzV9XQ==" marker-end="url(#my-svg_flowchart-v2-pointEnd)"/><path d="M139.918,1008.629L154.096,1024.969C168.274,1041.31,196.629,1073.991,214.973,1090.331C233.318,1106.672,241.651,1106.672,249.984,1106.672C258.318,1106.672,266.651,1106.672,292.901,1106.672C319.151,1106.672,363.318,1106.672,407.484,1106.672C451.651,1106.672,495.818,1106.672,526.424,1106.672C557.031,1106.672,574.078,1106.672,609.042,1106.672C644.005,1106.672,696.885,1106.672,752.559,1106.672C808.232,1106.672,866.698,1106.672,911.677,1091.747C956.655,1076.823,988.147,1046.974,1003.892,1032.05L1019.638,1017.126" id="L_CPT_UC6_0" class="edge-thickness-normal edge-pattern-solid edge-thickness-normal edge-pattern-solid flowchart-link" style=";" data-edge="true" data-et="edge" data-id="L_CPT_UC6_0" data-points="W3sieCI6MTM5LjkxODQ0NzIyMzIyMDE0LCJ5IjoxMDA4LjYyODkwNjI1fSx7IngiOjIyNC45ODQzNzUsInkiOjExMDYuNjcxODc1fSx7IngiOjI0OS45ODQzNzUsInkiOjExMDYuNjcxODc1fSx7IngiOjI3NC45ODQzNzUsInkiOjExMDYuNjcxODc1fSx7IngiOjQwNy40ODQzNzUsInkiOjExMDYuNjcxODc1fSx7IngiOjUzOS45ODQzNzUsInkiOjExMDYuNjcxODc1fSx7IngiOjU5MS4xMjUsInkiOjExMDYuNjcxODc1fSx7IngiOjc0OS43NjU2MjUsInkiOjExMDYuNjcxODc1fSx7IngiOjkyNS4xNjQwNjI1LCJ5IjoxMTA2LjY3MTg3NX0seyJ4IjoxMDIyLjU0MTAzNTMxMzAyNDYsInkiOjEwMTQuMzczODkzNTUzMjQyfV0=" marker-end="url(#my-svg_flowchart-v2-pointEnd)"/><path d="M122.641,1008.629L139.698,1083.535C156.755,1158.44,190.87,1308.251,212.094,1383.157C233.318,1458.063,241.651,1458.063,249.984,1458.063C258.318,1458.063,266.651,1458.063,280.641,1458.063C294.63,1458.063,314.276,1458.063,324.099,1458.063L333.922,1458.063" id="L_CPT_UC7_0" class="edge-thickness-normal edge-pattern-solid edge-thickness-normal edge-pattern-solid flowchart-link" style=";" data-edge="true" data-et="edge" data-id="L_CPT_UC7_0" data-points="W3sieCI6MTIyLjY0MDU1NTUwMTE4MDY0LCJ5IjoxMDA4LjYyODkwNjI1fSx7IngiOjIyNC45ODQzNzUsInkiOjE0NTguMDYyNX0seyJ4IjoyNDkuOTg0Mzc1LCJ5IjoxNDU4LjA2MjV9LHsieCI6Mjc0Ljk4NDM3NSwieSI6MTQ1OC4wNjI1fSx7IngiOjMzNy45MjE4NzUsInkiOjE0NTguMDYyNX1d" marker-end="url(#my-svg_flowchart-v2-pointEnd)"/><path d="M119.955,1008.629L137.46,1145.128C154.965,1281.628,189.974,1554.626,211.646,1691.126C233.318,1827.625,241.651,1827.625,249.984,1827.625C258.318,1827.625,266.651,1827.625,292.901,1827.625C319.151,1827.625,363.318,1827.625,407.484,1827.625C451.651,1827.625,495.818,1827.625,526.424,1827.625C557.031,1827.625,574.078,1827.625,590.663,1826.418C607.248,1825.211,623.371,1822.797,631.433,1821.591L639.495,1820.384" id="L_CPT_UC8_0" class="edge-thickness-normal edge-pattern-solid edge-thickness-normal edge-pattern-solid flowchart-link" style=";" data-edge="true" data-et="edge" data-id="L_CPT_UC8_0" data-points="W3sieCI6MTE5Ljk1NDcyMDEwOTk1MDM2LCJ5IjoxMDA4LjYyODkwNjI1fSx7IngiOjIyNC45ODQzNzUsInkiOjE4MjcuNjI1fSx7IngiOjI0OS45ODQzNzUsInkiOjE4MjcuNjI1fSx7IngiOjI3NC45ODQzNzUsInkiOjE4MjcuNjI1fSx7IngiOjQwNy40ODQzNzUsInkiOjE4MjcuNjI1fSx7IngiOjUzOS45ODQzNzUsInkiOjE4MjcuNjI1fSx7IngiOjU5MS4xMjUsInkiOjE4MjcuNjI1fSx7IngiOjY0My40NTA0Mzk3NjY0Mzg5LCJ5IjoxODE5Ljc5MTM4NzQyNzg1NTJ9XQ==" marker-end="url(#my-svg_flowchart-v2-pointEnd)"/><path d="M173.992,1856.203L182.491,1854.773C190.99,1853.343,207.987,1850.484,220.652,1849.055C233.318,1847.625,241.651,1847.625,249.984,1847.625C258.318,1847.625,266.651,1847.625,291.594,1695.128C316.537,1542.63,358.09,1237.635,378.867,1085.138L399.643,932.64" id="L_CAI_UC1_0" class="edge-thickness-normal edge-pattern-solid edge-thickness-normal edge-pattern-solid flowchart-link" style=";" data-edge="true" data-et="edge" data-id="L_CAI_UC1_0" data-points="W3sieCI6MTczLjk5MjE4NzUsInkiOjE4NTYuMjAyNjQ0NTU5NjZ9LHsieCI6MjI0Ljk4NDM3NSwieSI6MTg0Ny42MjV9LHsieCI6MjQ5Ljk4NDM3NSwieSI6MTg0Ny42MjV9LHsieCI6Mjc0Ljk4NDM3NSwieSI6MTg0Ny42MjV9LHsieCI6NDAwLjE4MzA4NjM4MzAzMTM3LCJ5Ijo5MjguNjc2NzkzMjQ3ODM4NH1d" marker-end="url(#my-svg_flowchart-v2-pointEnd)"/><path d="M173.992,1876.055L182.491,1877.559C190.99,1879.064,207.987,1882.073,220.652,1883.577C233.318,1885.082,241.651,1885.082,249.984,1885.082C258.318,1885.082,266.651,1885.082,289.466,1794.303C312.282,1703.523,349.579,1521.964,368.227,1431.185L386.876,1340.405" id="L_CAI_UC4_0" class="edge-thickness-normal edge-pattern-solid edge-thickness-normal edge-pattern-solid flowchart-link" style=";" data-edge="true" data-et="edge" data-id="L_CAI_UC4_0" data-points="W3sieCI6MTczLjk5MjE4NzUsInkiOjE4NzYuMDU0NTc0NDIyMTIxNX0seyJ4IjoyMjQuOTg0Mzc1LCJ5IjoxODg1LjA4MjAzMTI1fSx7IngiOjI0OS45ODQzNzUsInkiOjE4ODUuMDgyMDMxMjV9LHsieCI6Mjc0Ljk4NDM3NSwieSI6MTg4NS4wODIwMzEyNX0seyJ4IjozODcuNjgwOTQ5NjcyNDkxOSwieSI6MTMzNi40ODY5MzM1Njg3NzM2fV0=" marker-end="url(#my-svg_flowchart-v2-pointEnd)"/><path d="M173.992,1889.062L182.491,1892.489C190.99,1895.916,207.987,1902.771,220.652,1906.198C233.318,1909.625,241.651,1909.625,249.984,1909.625C258.318,1909.625,266.651,1909.625,292.901,1909.625C319.151,1909.625,363.318,1909.625,407.484,1909.625C451.651,1909.625,495.818,1909.625,526.424,1909.625C557.031,1909.625,574.078,1909.625,593.579,1902.307C613.08,1894.99,635.034,1880.355,646.012,1873.037L656.989,1865.72" id="L_CAI_UC8_0" class="edge-thickness-normal edge-pattern-solid edge-thickness-normal edge-pattern-solid flowchart-link" style=";" data-edge="true" data-et="edge" data-id="L_CAI_UC8_0" data-points="W3sieCI6MTczLjk5MjE4NzUsInkiOjE4ODkuMDYyMTUzNDUyODY5Nn0seyJ4IjoyMjQuOTg0Mzc1LCJ5IjoxOTA5LjYyNX0seyJ4IjoyNDkuOTg0Mzc1LCJ5IjoxOTA5LjYyNX0seyJ4IjoyNzQuOTg0Mzc1LCJ5IjoxOTA5LjYyNX0seyJ4Ijo0MDcuNDg0Mzc1LCJ5IjoxOTA5LjYyNX0seyJ4Ijo1MzkuOTg0Mzc1LCJ5IjoxOTA5LjYyNX0seyJ4Ijo1OTEuMTI1LCJ5IjoxOTA5LjYyNX0seyJ4Ijo2NjAuMzE3NTA3Njc2MTk3NCwieSI6MTg2My41MDEyMDQ4NzAyMzV9XQ==" marker-end="url(#my-svg_flowchart-v2-pointEnd)"/><path d="M189.27,1942.875L195.222,1940.667C201.174,1938.458,213.079,1934.042,223.199,1931.833C233.318,1929.625,241.651,1929.625,249.984,1929.625C258.318,1929.625,266.651,1929.625,292.901,1929.625C319.151,1929.625,363.318,1929.625,407.484,1929.625C451.651,1929.625,495.818,1929.625,526.424,1929.625C557.031,1929.625,574.078,1929.625,594.479,1920.21C614.879,1910.796,638.633,1891.967,650.51,1882.552L662.387,1873.137" id="L_AUD_UC8_0" class="edge-thickness-normal edge-pattern-solid edge-thickness-normal edge-pattern-solid flowchart-link" style=";" data-edge="true" data-et="edge" data-id="L_AUD_UC8_0" data-points="W3sieCI6MTg5LjI2OTU1NTUxMjQyMjM2LCJ5IjoxOTQyLjg3NX0seyJ4IjoyMjQuOTg0Mzc1LCJ5IjoxOTI5LjYyNX0seyJ4IjoyNDkuOTg0Mzc1LCJ5IjoxOTI5LjYyNX0seyJ4IjoyNzQuOTg0Mzc1LCJ5IjoxOTI5LjYyNX0seyJ4Ijo0MDcuNDg0Mzc1LCJ5IjoxOTI5LjYyNX0seyJ4Ijo1MzkuOTg0Mzc1LCJ5IjoxOTI5LjYyNX0seyJ4Ijo1OTEuMTI1LCJ5IjoxOTI5LjYyNX0seyJ4Ijo2NjUuNTIxOTM2Mzg2NjI4MSwieSI6MTg3MC42NTI2MjI5NjQ2ODJ9XQ==" marker-end="url(#my-svg_flowchart-v2-pointEnd)"/><path d="M198.75,1977.457L203.122,1977.86C207.495,1978.263,216.24,1979.069,224.779,1979.472C233.318,1979.875,241.651,1979.875,249.984,1979.875C258.318,1979.875,266.651,1979.875,285.282,1947.699C303.912,1915.524,332.84,1851.173,347.304,1818.997L361.768,1786.822" id="L_AUD_UC9_0" class="edge-thickness-normal edge-pattern-solid edge-thickness-normal edge-pattern-solid flowchart-link" style=";" data-edge="true" data-et="edge" data-id="L_AUD_UC9_0" data-points="W3sieCI6MTk4Ljc1LCJ5IjoxOTc3LjQ1NjkxMTEzOTkxNX0seyJ4IjoyMjQuOTg0Mzc1LCJ5IjoxOTc5Ljg3NX0seyJ4IjoyNDkuOTg0Mzc1LCJ5IjoxOTc5Ljg3NX0seyJ4IjoyNzQuOTg0Mzc1LCJ5IjoxOTc5Ljg3NX0seyJ4IjozNjMuNDA4MjEyNDQyNTM3MiwieSI6MTc4My4xNzM2NzEwNDc2Mzl9XQ==" marker-end="url(#my-svg_flowchart-v2-pointEnd)"/><path d="M480.523,150.848L490.434,147.707C500.344,144.565,520.164,138.283,538.598,214.691C557.031,291.1,574.078,450.201,601.458,571.931C628.837,693.661,666.549,778.02,685.405,820.2L704.261,862.38" id="L_DGI_UC5_0" class="edge-thickness-normal edge-pattern-solid edge-thickness-normal edge-pattern-solid flowchart-link" style=";" data-edge="true" data-et="edge" data-id="L_DGI_UC5_0" data-points="W3sieCI6NDgwLjUyMzQzNzUsInkiOjE1MC44NDc5OTUyODMwMTg4Nn0seyJ4Ijo1MzkuOTg0Mzc1LCJ5IjoxMzJ9LHsieCI6NTkxLjEyNSwieSI6NjA5LjMwMDc4MTI1fSx7IngiOjcwNS44OTMzNTAxMjU5MzgxLCJ5Ijo4NjYuMDMxODA0MTk2MjAwNn1d" marker-end="url(#my-svg_flowchart-v2-pointEnd)"/><path d="M480.523,185.576L490.434,187.147C500.344,188.717,520.164,191.859,538.598,274.224C557.031,356.589,574.078,518.177,609.042,598.971C644.005,679.766,696.885,679.766,752.559,679.766C808.232,679.766,866.698,679.766,914.789,707.791C962.881,735.816,1000.597,791.866,1019.456,819.891L1038.314,847.916" id="L_DGI_UC6_0" class="edge-thickness-normal edge-pattern-solid edge-thickness-normal edge-pattern-solid flowchart-link" style=";" data-edge="true" data-et="edge" data-id="L_DGI_UC6_0" data-points="W3sieCI6NDgwLjUyMzQzNzUsInkiOjE4NS41NzYwMDIzNTg0OTA1N30seyJ4Ijo1MzkuOTg0Mzc1LCJ5IjoxOTV9LHsieCI6NTkxLjEyNSwieSI6Njc5Ljc2NTYyNX0seyJ4Ijo3NDkuNzY1NjI1LCJ5Ijo2NzkuNzY1NjI1fSx7IngiOjkyNS4xNjQwNjI1LCJ5Ijo2NzkuNzY1NjI1fSx7IngiOjEwNDAuNTQ3MjI5OTYzNDM3NSwieSI6ODUxLjIzNDMzNDYwMDkxNDV9XQ==" marker-end="url(#my-svg_flowchart-v2-pointEnd)"/><path d="M458.82,70L472.348,70C485.875,70,512.93,70,534.98,148.139C557.031,226.279,574.078,382.557,590.72,460.697C607.362,538.836,623.599,538.836,631.717,538.836L639.836,538.836" id="L_CLI_UC10_0" class="edge-thickness-normal edge-pattern-solid edge-thickness-normal edge-pattern-solid flowchart-link" style=";" data-edge="true" data-et="edge" data-id="L_CLI_UC10_0" data-points="W3sieCI6NDU4LjgyMDMxMjUsInkiOjcwfSx7IngiOjUzOS45ODQzNzUsInkiOjcwfSx7IngiOjU5MS4xMjUsInkiOjUzOC44MzU5Mzc1fSx7IngiOjY0My44MzU5Mzc1LCJ5Ijo1MzguODM1OTM3NX1d" marker-end="url(#my-svg_flowchart-v2-pointEnd)"/><path d="M499.398,1204.911L506.162,1202.322C512.927,1199.734,526.455,1194.556,541.743,1191.968C557.031,1189.379,574.078,1189.379,598.34,1167.037C622.601,1144.695,654.078,1100.011,669.816,1077.669L685.554,1055.326" id="L_UC4_UC5_0" class="edge-thickness-normal edge-pattern-dotted edge-thickness-normal edge-pattern-solid flowchart-link" style=";" data-edge="true" data-et="edge" data-id="L_UC4_UC5_0" data-points="W3sieCI6NDk5LjM5NzczMTc1MzExODE0LCJ5IjoxMjA0LjkxMTE5NDQ1NzE4NjZ9LHsieCI6NTM5Ljk4NDM3NSwieSI6MTE4OS4zNzg5MDYyNX0seyJ4Ijo1OTEuMTI1LCJ5IjoxMTg5LjM3ODkwNjI1fSx7IngiOjY4Ny44NTc5MTM0NTgwNzI5LCJ5IjoxMDUyLjA1NjM3NDQ5NTg4MX1d" marker-end="url(#my-svg_flowchart-v2-pointEnd)"/><path d="M857.266,964.172L868.582,964.172C879.898,964.172,902.531,964.172,924.665,962.707C946.8,961.242,968.435,958.313,979.253,956.848L990.071,955.383" id="L_UC5_UC6_0" class="edge-thickness-normal edge-pattern-dotted edge-thickness-normal edge-pattern-solid flowchart-link" style=";" data-edge="true" data-et="edge" data-id="L_UC5_UC6_0" data-points="W3sieCI6ODU3LjI2NTYyNSwieSI6OTY0LjE3MTg3NX0seyJ4Ijo5MjUuMTY0MDYyNSwieSI6OTY0LjE3MTg3NX0seyJ4Ijo5OTQuMDM0NjQ2NzgwNTQyNiwieSI6OTU0Ljg0NjM4NDk5MDA3NH1d" marker-end="url(#my-svg_flowchart-v2-pointEnd)"/><path d="M489.753,1294.097L498.125,1299.593C506.497,1305.089,523.241,1316.082,540.136,1321.578C557.031,1327.074,574.078,1327.074,603.175,1388.908C632.272,1450.742,673.418,1574.41,693.991,1636.243L714.565,1698.077" id="L_UC4_UC8_0" class="edge-thickness-normal edge-pattern-dotted edge-thickness-normal edge-pattern-solid flowchart-link" style=";" data-edge="true" data-et="edge" data-id="L_UC4_UC8_0" data-points="W3sieCI6NDg5Ljc1MzIzMjE3NjEwMDM3LCJ5IjoxMjk0LjA5NjcwMzQzMzIxMjd9LHsieCI6NTM5Ljk4NDM3NSwieSI6MTMyNy4wNzQyMTg3NX0seyJ4Ijo1OTEuMTI1LCJ5IjoxMzI3LjA3NDIxODc1fSx7IngiOjcxNS44Mjc1NTI4MTU2ODkyLCJ5IjoxNzAxLjg3Mjc1ODU3MTYyNX1d" marker-end="url(#my-svg_flowchart-v2-pointEnd)"/><path d="M477.047,1458.063L487.536,1458.063C498.026,1458.063,519.005,1458.063,538.018,1458.063C557.031,1458.063,574.078,1458.063,601.293,1498.807C628.508,1539.552,665.891,1621.041,684.582,1661.786L703.274,1702.53" id="L_UC7_UC8_0" class="edge-thickness-normal edge-pattern-dotted edge-thickness-normal edge-pattern-solid flowchart-link" style=";" data-edge="true" data-et="edge" data-id="L_UC7_UC8_0" data-points="W3sieCI6NDc3LjA0Njg3NSwieSI6MTQ1OC4wNjI1fSx7IngiOjUzOS45ODQzNzUsInkiOjE0NTguMDYyNX0seyJ4Ijo1OTEuMTI1LCJ5IjoxNDU4LjA2MjV9LHsieCI6NzA0Ljk0MTgwMjQ0MjQ4NzgsInkiOjE3MDYuMTY1ODY1NjcwOTQ4M31d" marker-end="url(#my-svg_flowchart-v2-pointEnd)"/></g><g class="edgeLabels"><g class="edgeLabel"><g class="label" data-id="L_ADM_UC1_0" transform="translate(0, 0)"><foreignObject width="0" height="0"><div xmlns="http://www.w3.org/1999/xhtml" class="labelBkg" style="display: table-cell; white-space: nowrap; line-height: 1.5; max-width: 200px; text-align: center;"><span class="edgeLabel"></span></div></foreignObject></g></g><g class="edgeLabel"><g class="label" data-id="L_ADM_UC2_0" transform="translate(0, 0)"><foreignObject width="0" height="0"><div xmlns="http://www.w3.org/1999/xhtml" class="labelBkg" style="display: table-cell; white-space: nowrap; line-height: 1.5; max-width: 200px; text-align: center;"><span class="edgeLabel"></span></div></foreignObject></g></g><g class="edgeLabel"><g class="label" data-id="L_ADM_UC9_0" transform="translate(0, 0)"><foreignObject width="0" height="0"><div xmlns="http://www.w3.org/1999/xhtml" class="labelBkg" style="display: table-cell; white-space: nowrap; line-height: 1.5; max-width: 200px; text-align: center;"><span class="edgeLabel"></span></div></foreignObject></g></g><g class="edgeLabel"><g class="label" data-id="L_CPT_UC1_0" transform="translate(0, 0)"><foreignObject width="0" height="0"><div xmlns="http://www.w3.org/1999/xhtml" class="labelBkg" style="display: table-cell; white-space: nowrap; line-height: 1.5; max-width: 200px; text-align: center;"><span class="edgeLabel"></span></div></foreignObject></g></g><g class="edgeLabel"><g class="label" data-id="L_CPT_UC3_0" transform="translate(0, 0)"><foreignObject width="0" height="0"><div xmlns="http://www.w3.org/1999/xhtml" class="labelBkg" style="display: table-cell; white-space: nowrap; line-height: 1.5; max-width: 200px; text-align: center;"><span class="edgeLabel"></span></div></foreignObject></g></g><g class="edgeLabel"><g class="label" data-id="L_CPT_UC4_0" transform="translate(0, 0)"><foreignObject width="0" height="0"><div xmlns="http://www.w3.org/1999/xhtml" class="labelBkg" style="display: table-cell; white-space: nowrap; line-height: 1.5; max-width: 200px; text-align: center;"><span class="edgeLabel"></span></div></foreignObject></g></g><g class="edgeLabel"><g class="label" data-id="L_CPT_UC5_0" transform="translate(0, 0)"><foreignObject width="0" height="0"><div xmlns="http://www.w3.org/1999/xhtml" class="labelBkg" style="display: table-cell; white-space: nowrap; line-height: 1.5; max-width: 200px; text-align: center;"><span class="edgeLabel"></span></div></foreignObject></g></g><g class="edgeLabel"><g class="label" data-id="L_CPT_UC6_0" transform="translate(0, 0)"><foreignObject width="0" height="0"><div xmlns="http://www.w3.org/1999/xhtml" class="labelBkg" style="display: table-cell; white-space: nowrap; line-height: 1.5; max-width: 200px; text-align: center;"><span class="edgeLabel"></span></div></foreignObject></g></g><g class="edgeLabel"><g class="label" data-id="L_CPT_UC7_0" transform="translate(0, 0)"><foreignObject width="0" height="0"><div xmlns="http://www.w3.org/1999/xhtml" class="labelBkg" style="display: table-cell; white-space: nowrap; line-height: 1.5; max-width: 200px; text-align: center;"><span class="edgeLabel"></span></div></foreignObject></g></g><g class="edgeLabel"><g class="label" data-id="L_CPT_UC8_0" transform="translate(0, 0)"><foreignObject width="0" height="0"><div xmlns="http://www.w3.org/1999/xhtml" class="labelBkg" style="display: table-cell; white-space: nowrap; line-height: 1.5; max-width: 200px; text-align: center;"><span class="edgeLabel"></span></div></foreignObject></g></g><g class="edgeLabel"><g class="label" data-id="L_CAI_UC1_0" transform="translate(0, 0)"><foreignObject width="0" height="0"><div xmlns="http://www.w3.org/1999/xhtml" class="labelBkg" style="display: table-cell; white-space: nowrap; line-height: 1.5; max-width: 200px; text-align: center;"><span class="edgeLabel"></span></div></foreignObject></g></g><g class="edgeLabel"><g class="label" data-id="L_CAI_UC4_0" transform="translate(0, 0)"><foreignObject width="0" height="0"><div xmlns="http://www.w3.org/1999/xhtml" class="labelBkg" style="display: table-cell; white-space: nowrap; line-height: 1.5; max-width: 200px; text-align: center;"><span class="edgeLabel"></span></div></foreignObject></g></g><g class="edgeLabel"><g class="label" data-id="L_CAI_UC8_0" transform="translate(0, 0)"><foreignObject width="0" height="0"><div xmlns="http://www.w3.org/1999/xhtml" class="labelBkg" style="display: table-cell; white-space: nowrap; line-height: 1.5; max-width: 200px; text-align: center;"><span class="edgeLabel"></span></div></foreignObject></g></g><g class="edgeLabel"><g class="label" data-id="L_AUD_UC8_0" transform="translate(0, 0)"><foreignObject width="0" height="0"><div xmlns="http://www.w3.org/1999/xhtml" class="labelBkg" style="display: table-cell; white-space: nowrap; line-height: 1.5; max-width: 200px; text-align: center;"><span class="edgeLabel"></span></div></foreignObject></g></g><g class="edgeLabel"><g class="label" data-id="L_AUD_UC9_0" transform="translate(0, 0)"><foreignObject width="0" height="0"><div xmlns="http://www.w3.org/1999/xhtml" class="labelBkg" style="display: table-cell; white-space: nowrap; line-height: 1.5; max-width: 200px; text-align: center;"><span class="edgeLabel"></span></div></foreignObject></g></g><g class="edgeLabel"><g class="label" data-id="L_DGI_UC5_0" transform="translate(0, 0)"><foreignObject width="0" height="0"><div xmlns="http://www.w3.org/1999/xhtml" class="labelBkg" style="display: table-cell; white-space: nowrap; line-height: 1.5; max-width: 200px; text-align: center;"><span class="edgeLabel"></span></div></foreignObject></g></g><g class="edgeLabel"><g class="label" data-id="L_DGI_UC6_0" transform="translate(0, 0)"><foreignObject width="0" height="0"><div xmlns="http://www.w3.org/1999/xhtml" class="labelBkg" style="display: table-cell; white-space: nowrap; line-height: 1.5; max-width: 200px; text-align: center;"><span class="edgeLabel"></span></div></foreignObject></g></g><g class="edgeLabel"><g class="label" data-id="L_CLI_UC10_0" transform="translate(0, 0)"><foreignObject width="0" height="0"><div xmlns="http://www.w3.org/1999/xhtml" class="labelBkg" style="display: table-cell; white-space: nowrap; line-height: 1.5; max-width: 200px; text-align: center;"><span class="edgeLabel"></span></div></foreignObject></g></g><g class="edgeLabel" transform="translate(591.125, 1189.37890625)"><g class="label" data-id="L_UC4_UC5_0" transform="translate(-26.140625, -12)"><foreignObject width="52.28125" height="24"><div xmlns="http://www.w3.org/1999/xhtml" class="labelBkg" style="display: table-cell; white-space: nowrap; line-height: 1.5; max-width: 200px; text-align: center;"><span class="edgeLabel"><p>produit</p></span></div></foreignObject></g></g><g class="edgeLabel" transform="translate(925.1640625, 964.171875)"><g class="label" data-id="L_UC5_UC6_0" transform="translate(-42.8984375, -12)"><foreignObject width="85.796875" height="24"><div xmlns="http://www.w3.org/1999/xhtml" class="labelBkg" style="display: table-cell; white-space: nowrap; line-height: 1.5; max-width: 200px; text-align: center;"><span class="edgeLabel"><p>en cas rejet</p></span></div></foreignObject></g></g><g class="edgeLabel" transform="translate(591.125, 1327.07421875)"><g class="label" data-id="L_UC4_UC8_0" transform="translate(-18.8125, -12)"><foreignObject width="37.625" height="24"><div xmlns="http://www.w3.org/1999/xhtml" class="labelBkg" style="display: table-cell; white-space: nowrap; line-height: 1.5; max-width: 200px; text-align: center;"><span class="edgeLabel"><p>trace</p></span></div></foreignObject></g></g><g class="edgeLabel" transform="translate(591.125, 1458.0625)"><g class="label" data-id="L_UC7_UC8_0" transform="translate(-18.8125, -12)"><foreignObject width="37.625" height="24"><div xmlns="http://www.w3.org/1999/xhtml" class="labelBkg" style="display: table-cell; white-space: nowrap; line-height: 1.5; max-width: 200px; text-align: center;"><span class="edgeLabel"><p>trace</p></span></div></foreignObject></g></g></g><g class="nodes"><g class="node default" id="flowchart-ADM-0" transform="translate(116.4921875, 388.5)"><rect class="basic label-container" style="" x="-83.4921875" y="-27" width="166.984375" height="54"/><g class="label" style="" transform="translate(-53.4921875, -12)"><rect/><foreignObject width="106.984375" height="24"><div xmlns="http://www.w3.org/1999/xhtml" style="display: table-cell; white-space: nowrap; line-height: 1.5; max-width: 200px; text-align: center;"><span class="nodeLabel"><p>Administrateur</p></span></div></foreignObject></g></g><g class="node default" id="flowchart-CPT-1" transform="translate(116.4921875, 981.62890625)"><rect class="basic label-container" style="" x="-68.734375" y="-27" width="137.46875" height="54"/><g class="label" style="" transform="translate(-38.734375, -12)"><rect/><foreignObject width="77.46875" height="24"><div xmlns="http://www.w3.org/1999/xhtml" style="display: table-cell; white-space: nowrap; line-height: 1.5; max-width: 200px; text-align: center;"><span class="nodeLabel"><p>Comptable</p></span></div></foreignObject></g></g><g class="node default" id="flowchart-CAI-2" transform="translate(116.4921875, 1865.875)"><rect class="basic label-container" style="" x="-57.5" y="-27" width="115" height="54"/><g class="label" style="" transform="translate(-27.5, -12)"><rect/><foreignObject width="55" height="24"><div xmlns="http://www.w3.org/1999/xhtml" style="display: table-cell; white-space: nowrap; line-height: 1.5; max-width: 200px; text-align: center;"><span class="nodeLabel"><p>Caissier</p></span></div></foreignObject></g></g><g class="node default" id="flowchart-AUD-3" transform="translate(116.4921875, 1969.875)"><rect class="basic label-container" style="" x="-82.2578125" y="-27" width="164.515625" height="54"/><g class="label" style="" transform="translate(-52.2578125, -12)"><rect/><foreignObject width="104.515625" height="24"><div xmlns="http://www.w3.org/1999/xhtml" style="display: table-cell; white-space: nowrap; line-height: 1.5; max-width: 200px; text-align: center;"><span class="nodeLabel"><p>Auditeur fiscal</p></span></div></foreignObject></g></g><g class="node default" id="flowchart-UC1-4" transform="translate(407.484375, 875.0859375)"><circle class="basic label-container" style="" r="54.0859375" cx="0" cy="0"/><g class="label" style="" transform="translate(-46.5859375, -12)"><rect/><foreignObject width="93.171875" height="24"><div xmlns="http://www.w3.org/1999/xhtml" style="display: table-cell; white-space: nowrap; line-height: 1.5; max-width: 200px; text-align: center;"><span class="nodeLabel"><p>Se connecter</p></span></div></foreignObject></g></g><g class="node default" id="flowchart-UC2-5" transform="translate(407.484375, 398.5)"><circle class="basic label-container" style="" r="107.5" cx="0" cy="0"/><g class="label" style="" transform="translate(-100, -24)"><rect/><foreignObject width="200" height="48"><div xmlns="http://www.w3.org/1999/xhtml" style="display: table; white-space: break-spaces; line-height: 1.5; max-width: 200px; text-align: center; width: 200px;"><span class="nodeLabel"><p>Administrer parametres et utilisateurs</p></span></div></foreignObject></g></g><g class="node default" id="flowchart-UC3-6" transform="translate(407.484375, 663.5)"><circle class="basic label-container" style="" r="107.5" cx="0" cy="0"/><g class="label" style="" transform="translate(-100, -24)"><rect/><foreignObject width="200" height="48"><div xmlns="http://www.w3.org/1999/xhtml" style="display: table; white-space: break-spaces; line-height: 1.5; max-width: 200px; text-align: center; width: 200px;"><span class="nodeLabel"><p>Gerer referentiel clients et produits</p></span></div></foreignObject></g></g><g class="node default" id="flowchart-UC4-7" transform="translate(407.484375, 1240.0859375)"><circle class="basic label-container" style="" r="98.4140625" cx="0" cy="0"/><g class="label" style="" transform="translate(-90.9140625, -12)"><rect/><foreignObject width="181.828125" height="24"><div xmlns="http://www.w3.org/1999/xhtml" style="display: table-cell; white-space: nowrap; line-height: 1.5; max-width: 200px; text-align: center;"><span class="nodeLabel"><p>Emettre facture certifiee</p></span></div></foreignObject></g></g><g class="node default" id="flowchart-UC5-8" transform="translate(749.765625, 964.171875)"><circle class="basic label-container" style="" r="107.5" cx="0" cy="0"/><g class="label" style="" transform="translate(-100, -24)"><rect/><foreignObject width="200" height="48"><div xmlns="http://www.w3.org/1999/xhtml" style="display: table; white-space: break-spaces; line-height: 1.5; max-width: 200px; text-align: center; width: 200px;"><span class="nodeLabel"><p>Transmettre et suivre statut SECeF</p></span></div></foreignObject></g></g><g class="node default" id="flowchart-UC6-9" transform="translate(1100.5625, 940.421875)"><circle class="basic label-container" style="" r="107.5" cx="0" cy="0"/><g class="label" style="" transform="translate(-100, -24)"><rect/><foreignObject width="200" height="48"><div xmlns="http://www.w3.org/1999/xhtml" style="display: table; white-space: break-spaces; line-height: 1.5; max-width: 200px; text-align: center; width: 200px;"><span class="nodeLabel"><p>Corriger rejet et retransmettre</p></span></div></foreignObject></g></g><g class="node default" id="flowchart-UC7-10" transform="translate(407.484375, 1458.0625)"><circle class="basic label-container" style="" r="69.5625" cx="0" cy="0"/><g class="label" style="" transform="translate(-62.0625, -12)"><rect/><foreignObject width="124.125" height="24"><div xmlns="http://www.w3.org/1999/xhtml" style="display: table-cell; white-space: nowrap; line-height: 1.5; max-width: 200px; text-align: center;"><span class="nodeLabel"><p>Annuler par avoir</p></span></div></foreignObject></g></g><g class="node default" id="flowchart-UC8-11" transform="translate(749.765625, 1803.875)"><circle class="basic label-container" style="" r="107.5" cx="0" cy="0"/><g class="label" style="" transform="translate(-100, -24)"><rect/><foreignObject width="200" height="48"><div xmlns="http://www.w3.org/1999/xhtml" style="display: table; white-space: break-spaces; line-height: 1.5; max-width: 200px; text-align: center; width: 200px;"><span class="nodeLabel"><p>Consulter archives et journal d'audit</p></span></div></foreignObject></g></g><g class="node default" id="flowchart-UC9-12" transform="translate(407.484375, 1685.125)"><circle class="basic label-container" style="" r="107.5" cx="0" cy="0"/><g class="label" style="" transform="translate(-100, -24)"><rect/><foreignObject width="200" height="48"><div xmlns="http://www.w3.org/1999/xhtml" style="display: table; white-space: break-spaces; line-height: 1.5; max-width: 200px; text-align: center; width: 200px;"><span class="nodeLabel"><p>Generer rapport de conformite</p></span></div></foreignObject></g></g><g class="node default" id="flowchart-UC10-13" transform="translate(749.765625, 538.8359375)"><circle class="basic label-container" style="" r="105.9296875" cx="0" cy="0"/><g class="label" style="" transform="translate(-98.4296875, -12)"><rect/><foreignObject width="196.859375" height="24"><div xmlns="http://www.w3.org/1999/xhtml" style="display: table-cell; white-space: nowrap; line-height: 1.5; max-width: 200px; text-align: center;"><span class="nodeLabel"><p>Verifier authenticite via QR</p></span></div></foreignObject></g></g><g class="node default" id="flowchart-CLI-14" transform="translate(407.484375, 70)"><rect class="basic label-container" style="" x="-51.3359375" y="-27" width="102.671875" height="54"/><g class="label" style="" transform="translate(-21.3359375, -12)"><rect/><foreignObject width="42.671875" height="24"><div xmlns="http://www.w3.org/1999/xhtml" style="display: table-cell; white-space: nowrap; line-height: 1.5; max-width: 200px; text-align: center;"><span class="nodeLabel"><p>Client</p></span></div></foreignObject></g></g><g class="node default" id="flowchart-DGI-15" transform="translate(407.484375, 174)"><rect class="basic label-container" style="" x="-73.0390625" y="-27" width="146.078125" height="54"/><g class="label" style="" transform="translate(-43.0390625, -12)"><rect/><foreignObject width="86.078125" height="24"><div xmlns="http://www.w3.org/1999/xhtml" style="display: table-cell; white-space: nowrap; line-height: 1.5; max-width: 200px; text-align: center;"><span class="nodeLabel"><p>DGI / SECeF</p></span></div></foreignObject></g></g></g></g></g></svg>